<svg xmlns="http://www.w3.org/2000/svg" viewBox="0 0 131.11 27.19"><defs><style>.cls-1{opacity:0.89;font-size:26px;fill:#fff;font-family:BerlinSansFB-Reg, Berlin Sans FB;letter-spacing:0em;}.cls-2{fill:#85986f;}.cls-3{fill:#acd263;}.cls-4{fill:#434b56;}</style></defs><title>Asset 10</title><g id="Layer_2" data-name="Layer 2"><g id="Layer_1-2" data-name="Layer 1"><text class="cls-1" transform="translate(0 21.9)">LeafSmart</text><path class="cls-2" d="M122.85,13.16c-1.69,1.63-3.19,3.51-4.7,5l1.93.43a5.49,5.49,0,0,0,1.08.11c2.79,0,5.71-2.08,7.36-3.86a6.55,6.55,0,0,0,2-4.41A5.28,5.28,0,0,0,129,7.22C127.43,8.71,125.21,10.87,122.85,13.16Z"/><path class="cls-3" d="M129,7.22a4.67,4.67,0,0,0-1.26-.83,5.44,5.44,0,0,0-2.28-.47,6.54,6.54,0,0,0-2.77.62,8.63,8.63,0,0,0-3.73,3.57,10.82,10.82,0,0,0-1,7.8l4.91-4.75C125.2,10.87,127.43,8.71,129,7.22Z"/><path class="cls-4" d="M115.4,20.92a.43.43,0,0,1-.3-.13.41.41,0,0,1,0-.58c1.8-1.73,3.63-3.52,5.41-5.25,1.59-1.55,3.23-3.15,4.84-4.7a.41.41,0,1,1,.57.59c-1.61,1.55-3.25,3.15-4.84,4.7-1.77,1.73-3.61,3.52-5.42,5.25A.39.39,0,0,1,115.4,20.92Z"/><path class="cls-4" d="M121.17,19.17a6,6,0,0,1-1.2-.12.41.41,0,0,1-.32-.49.4.4,0,0,1,.48-.31c2.78.58,6.12-1.43,8.2-3.68a6.3,6.3,0,0,0,1.95-4.22,4.47,4.47,0,0,0-2.67-3.79,5.91,5.91,0,0,0-4.83.15,8.48,8.48,0,0,0-3.62,3.47c-.9,1.54-1.93,5-.89,7.84a.42.42,0,0,1-.25.53.4.4,0,0,1-.52-.24c-1.28-3.47.25-7.34,1-8.54a9.24,9.24,0,0,1,4-3.8A6.7,6.7,0,0,1,128,5.82a5.28,5.28,0,0,1,3.15,4.5,7,7,0,0,1-2.16,4.81C127.11,17.1,124.11,19.17,121.17,19.17Z"/><path class="cls-4" d="M127.38,12.87h0l-3.26-.19a.4.4,0,0,1-.38-.43.41.41,0,0,1,.43-.39l3.26.19a.42.42,0,0,1,.38.44A.41.41,0,0,1,127.38,12.87Z"/><path class="cls-4" d="M122.85,13.37a.41.41,0,0,1-.39-.3,22.76,22.76,0,0,1-.69-3.36.41.41,0,0,1,.81-.11,22.58,22.58,0,0,0,.67,3.25.41.41,0,0,1-.28.5Z"/><path class="cls-4" d="M123.46,15.67a9.71,9.71,0,0,1-2.33-.28.41.41,0,0,1-.3-.5.4.4,0,0,1,.49-.3,9,9,0,0,0,2.88.23.41.41,0,0,1,.06.82C124,15.66,123.73,15.67,123.46,15.67Z"/></g></g></svg>